<svg width="123" height="36" viewBox="0 0 123 36" fill="none" xmlns="http://www.w3.org/2000/svg">
<path fill-rule="evenodd" clip-rule="evenodd" d="M27.8333 20.1389C27.8333 27.2266 22.0877 32.9722 15 32.9722C7.91234 32.9722 2.16666 27.2266 2.16666 20.1389C2.16666 13.0512 7.91234 7.30555 15 7.30555C22.0877 7.30555 27.8333 13.0512 27.8333 20.1389ZM30 20.1389C30 28.4232 23.2843 35.1389 15 35.1389C6.71573 35.1389 0 28.4232 0 20.1389C0 11.8546 6.71573 5.13889 15 5.13889C23.2843 5.13889 30 11.8546 30 20.1389ZM23.2759 13.4148C23.2759 14.2718 22.5812 14.9665 21.7242 14.9665C20.8672 14.9665 20.1725 14.2718 20.1725 13.4148C20.1725 12.5578 20.8672 11.8631 21.7242 11.8631C22.5812 11.8631 23.2759 12.5578 23.2759 13.4148ZM10.4879 21.3479C11.1556 23.8398 13.717 25.3186 16.2089 24.6509C18.7008 23.9832 20.1796 21.4218 19.5119 18.9299C18.8442 16.438 16.2828 14.9592 13.7909 15.6269C11.299 16.2946 9.82015 18.856 10.4879 21.3479ZM8.39503 21.9087C9.37244 25.5564 13.1219 27.7212 16.7696 26.7438C20.4174 25.7663 22.5821 22.0169 21.6047 18.3691C20.6273 14.7214 16.8779 12.5566 13.2301 13.5341C9.58236 14.5115 7.41762 18.2609 8.39503 21.9087Z" fill="url(#paint0_linear_7_2)"/>
<path d="M34.5859 8.78516C35.7578 8.88281 36.7832 8.94141 37.6621 8.96094C38.5605 8.98047 39.3223 8.99023 39.9473 8.99023C40.6699 8.99023 41.2949 8.9707 41.8223 8.93164C42.3691 8.87305 43.082 8.79492 43.9609 8.69727C44.7031 8.59961 45.6602 8.47266 46.832 8.31641C48.0039 8.14062 49.4297 7.91602 51.1094 7.64258C50.8945 7.97461 50.709 8.32617 50.5527 8.69727C50.416 9.04883 50.2988 9.37109 50.2012 9.66406C50.1035 10.0156 50.0156 10.3574 49.9375 10.6895C49.8789 11.0605 49.8105 11.5195 49.7324 12.0664C49.6543 12.5352 49.5566 13.1309 49.4395 13.8535C49.3418 14.5566 49.2148 15.3965 49.0586 16.373C48.4727 14.8496 47.877 13.6777 47.2715 12.8574C46.6855 12.0371 46.1387 11.4316 45.6309 11.041C45.0449 10.5918 44.4883 10.3379 43.9609 10.2793C43.1992 10.2793 42.5742 10.4258 42.0859 10.7188C41.5977 11.0117 41.1973 11.3926 40.8848 11.8613C40.5918 12.3105 40.3672 12.8086 40.2109 13.3555C40.0547 13.8828 39.9473 14.4004 39.8887 14.9082C39.8301 15.3965 39.791 15.8359 39.7715 16.2266C39.752 16.5977 39.7324 16.8516 39.7129 16.9883C40.3965 16.9492 40.9727 16.9004 41.4414 16.8418C41.9102 16.7832 42.2812 16.7246 42.5547 16.666C42.8867 16.5879 43.1504 16.5098 43.3457 16.4316C43.6387 16.2754 43.9316 16.0898 44.2246 15.875C44.4785 15.6797 44.7422 15.4453 45.0156 15.1719C45.3086 14.8984 45.5625 14.5664 45.7773 14.1758C45.6602 14.8789 45.5527 15.4648 45.4551 15.9336C45.377 16.4023 45.3086 16.7734 45.25 17.0469C45.1719 17.3789 45.123 17.6328 45.1035 17.8086C45.0645 17.9844 45.0156 18.2285 44.957 18.541C44.8984 18.8145 44.8301 19.166 44.752 19.5957C44.6738 20.0254 44.5859 20.5625 44.4883 21.207C44.2539 20.7969 44.0098 20.4648 43.7559 20.2109C43.502 19.9375 43.2676 19.7227 43.0527 19.5664C42.7988 19.3906 42.5547 19.2539 42.3203 19.1562C42.0664 19.0781 41.793 19 41.5 18.9219C41.2461 18.8633 40.9434 18.8047 40.5918 18.7461C40.2598 18.668 39.8984 18.5996 39.5078 18.541C39.5469 19.5957 39.6055 20.5039 39.6836 21.2656C39.7617 22.0078 39.8301 22.6328 39.8887 23.1406C39.9668 23.7266 40.0449 24.2148 40.123 24.6055C40.2207 24.9961 40.377 25.416 40.5918 25.8652C40.7676 26.2559 41.0117 26.7051 41.3242 27.2129C41.6562 27.7012 42.0762 28.2285 42.584 28.7949C42.1934 28.6973 41.7832 28.6289 41.3535 28.5898C40.9238 28.5508 40.543 28.5215 40.2109 28.502C39.8008 28.4824 39.4102 28.4824 39.0391 28.502C38.6484 28.5215 38.2188 28.5605 37.75 28.6191C37.3594 28.6582 36.9102 28.7168 36.4023 28.7949C35.8945 28.873 35.3574 28.9609 34.791 29.0586C35.123 28.7266 35.3965 28.3945 35.6113 28.0625C35.8262 27.7305 35.9824 27.4375 36.0801 27.1836C36.1973 26.8906 36.2754 26.6074 36.3145 26.334C36.334 26.0996 36.3438 25.5918 36.3438 24.8105C36.3438 24.0098 36.334 23.082 36.3145 22.0273C36.2949 20.9531 36.2656 19.8203 36.2266 18.6289C36.1875 17.4375 36.1484 16.3242 36.1094 15.2891C36.0703 14.2344 36.0215 13.3359 35.9629 12.5938C35.9238 11.8516 35.875 11.4023 35.8164 11.2461C35.7383 11.0508 35.6504 10.8262 35.5527 10.5723C35.3965 10.1621 35.0742 9.56641 34.5859 8.78516ZM52.0762 29.8203C52.2715 29.5273 52.4277 29.2539 52.5449 29C52.6621 28.7461 52.7598 28.5312 52.8379 28.3555C52.916 28.1406 52.9746 27.9453 53.0137 27.7695C53.0332 27.6523 53.043 27.3105 53.043 26.7441C53.043 26.1777 53.0234 25.4648 52.9844 24.6055C52.9648 23.7461 52.9355 22.7793 52.8965 21.7051C52.877 20.6309 52.8379 19.5371 52.7793 18.4238C52.7402 17.3105 52.6914 16.2266 52.6328 15.1719C52.5938 14.1172 52.5547 13.1699 52.5156 12.3301C52.4766 11.4707 52.4375 10.7676 52.3984 10.2207C52.3594 9.67383 52.3301 9.36133 52.3105 9.2832C52.2715 9.16602 52.2031 9.04883 52.1055 8.93164C51.9102 8.69727 51.5781 8.47266 51.1094 8.25781C52.1055 8.00391 52.8672 7.79883 53.3945 7.64258C53.707 7.56445 53.9805 7.48633 54.2148 7.4082C54.4297 7.33008 54.6445 7.25195 54.8594 7.17383C55.0352 7.0957 55.2305 7.00781 55.4453 6.91016C55.6602 6.79297 55.8555 6.66602 56.0312 6.5293C55.9336 7.0957 55.8555 7.64258 55.7969 8.16992C55.7383 8.69727 55.6895 9.18555 55.6504 9.63477C55.6113 10.1426 55.5918 10.6309 55.5918 11.0996C55.4941 12.0566 55.4355 13.1016 55.416 14.2344C55.416 15.3477 55.4258 16.4805 55.4453 17.6328C55.4648 18.7852 55.5039 19.9082 55.5625 21.002C55.6211 22.0957 55.6797 23.0918 55.7383 23.9902C55.8164 24.8691 55.8848 25.6211 55.9434 26.2461C56.0215 26.8516 56.0801 27.2422 56.1191 27.418C56.1973 27.7109 56.2754 27.9941 56.3535 28.2676C56.4316 28.502 56.5195 28.7461 56.6172 29C56.7148 29.2734 56.832 29.4883 56.9688 29.6445H54.127C53.873 29.6445 53.6289 29.6543 53.3945 29.6738C53.1797 29.6934 52.9551 29.7129 52.7207 29.7324C52.4863 29.752 52.2715 29.7812 52.0762 29.8203ZM60.2207 17.1348C60.3184 17.0176 60.377 16.8027 60.3965 16.4902C60.4355 16.1582 60.5137 15.7871 60.6309 15.377C60.7676 14.9668 60.9922 14.5371 61.3047 14.0879C61.6172 13.6387 62.125 13.2188 62.8281 12.8281C63.5117 12.4375 64.1758 12.2031 64.8203 12.125C65.4648 12.0469 66.0801 12.0762 66.666 12.2129C67.252 12.3496 67.7988 12.5645 68.3066 12.8574C68.834 13.1504 69.3125 13.4727 69.7422 13.8242C70.0352 14.0586 70.2695 14.4004 70.4453 14.8496C70.6211 15.2793 70.7578 15.7676 70.8555 16.3145C70.9531 16.8613 71.0215 17.4375 71.0605 18.043C71.1191 18.6289 71.1582 19.2051 71.1777 19.7715C71.1973 20.3184 71.207 20.8262 71.207 21.2949C71.2266 21.7441 71.2656 22.1152 71.3242 22.4082C71.4023 22.8379 71.5391 23.209 71.7344 23.5215C71.9297 23.8145 72.1445 24.0684 72.3789 24.2832C72.6133 24.4785 72.8477 24.6348 73.082 24.752C73.3164 24.8691 73.5215 24.957 73.6973 25.0156C73.8145 25.0742 73.9219 25.1133 74.0195 25.1328C74.2148 25.2109 74.3516 25.2109 74.4297 25.1328C74.3125 25.4062 74.2051 25.6406 74.1074 25.8359C74.0098 26.0312 73.9316 26.1973 73.873 26.334C73.7949 26.4902 73.7266 26.6172 73.668 26.7148C73.6094 26.832 73.541 26.9395 73.4629 27.0371C73.4043 27.1348 73.3262 27.2422 73.2285 27.3594C73.1309 27.4766 73.0332 27.6035 72.9355 27.7402C72.6816 27.6426 72.4375 27.5254 72.2031 27.3887C71.9883 27.252 71.793 27.125 71.6172 27.0078C71.4023 26.8711 71.207 26.7344 71.0312 26.5977C70.8555 26.4609 70.6895 26.3047 70.5332 26.1289C70.3965 25.9727 70.25 25.8066 70.0938 25.6309C69.957 25.4551 69.8398 25.2598 69.7422 25.0449C69.625 25.2988 69.3418 25.6602 68.8926 26.1289C68.4629 26.5977 67.8965 27.0273 67.1934 27.418C66.4902 27.7891 65.6699 28.0527 64.7324 28.209C63.8145 28.3652 62.7988 28.2578 61.6855 27.8867C61.1973 27.7305 60.7383 27.5059 60.3086 27.2129C59.8789 26.9004 59.5078 26.5293 59.1953 26.0996C58.9023 25.6699 58.6875 25.1816 58.5508 24.6348C58.4336 24.0684 58.4434 23.4434 58.5801 22.7598C58.7168 22.0762 58.9609 21.5 59.3125 21.0312C59.6641 20.5625 60.084 20.1816 60.5723 19.8887C61.0605 19.5957 61.6074 19.3711 62.2129 19.2148C62.8184 19.0586 63.4434 18.9512 64.0879 18.8926C64.5957 18.873 65.1035 18.9023 65.6113 18.9805C66.041 19.0586 66.4902 19.2051 66.959 19.4199C67.4277 19.6152 67.8281 19.918 68.1602 20.3281C68.1406 19.293 68.1016 18.4727 68.043 17.8672C68.0039 17.2422 67.9648 16.7637 67.9258 16.4316C67.8477 16.041 67.7793 15.7676 67.7207 15.6113C67.623 15.4746 67.5156 15.3184 67.3984 15.1426C67.3008 14.9668 67.1738 14.8105 67.0176 14.6738C66.8613 14.5176 66.666 14.3906 66.4316 14.293C66.1973 14.1953 65.9238 14.1562 65.6113 14.1758C65.2793 14.1953 65.0156 14.2832 64.8203 14.4395C64.625 14.5957 64.4688 14.7812 64.3516 14.9961C64.2539 15.1914 64.1953 15.4062 64.1758 15.6406C64.1562 15.875 64.166 16.0801 64.2051 16.2559C64.2441 16.373 64.3027 16.5 64.3809 16.6367C64.459 16.7539 64.5664 16.8809 64.7031 17.0176C64.8398 17.1543 65.0254 17.2715 65.2598 17.3691C64.8105 17.4277 64.4102 17.4766 64.0586 17.5156C63.707 17.5352 63.4043 17.5645 63.1504 17.6035C62.8574 17.6426 62.6035 17.6719 62.3887 17.6914C62.1738 17.7109 61.9199 17.75 61.627 17.8086C61.373 17.8477 61.0605 17.8965 60.6895 17.9551C60.3184 18.0137 59.8887 18.0918 59.4004 18.1895C59.5176 18.0527 59.625 17.9258 59.7227 17.8086C59.8203 17.6719 59.9082 17.5547 59.9863 17.457C60.0645 17.3398 60.1426 17.2324 60.2207 17.1348ZM64.6152 20.6211C64.2637 20.6406 63.9121 20.7285 63.5605 20.8848C63.209 21.0215 62.8965 21.2266 62.623 21.5C62.3496 21.7539 62.1152 22.0566 61.9199 22.4082C61.7441 22.7402 61.6562 23.1113 61.6562 23.5215C61.6562 23.9316 61.7539 24.293 61.9492 24.6055C62.1641 24.8984 62.4375 25.1426 62.7695 25.3379C63.1211 25.5332 63.4922 25.6504 63.8828 25.6895C64.293 25.7285 64.6934 25.6895 65.084 25.5723C65.4551 25.4355 65.8066 25.2207 66.1387 24.9277C66.4707 24.6152 66.7539 24.2832 66.9883 23.9316C67.2227 23.5605 67.3887 23.1992 67.4863 22.8477C67.584 22.4766 67.5938 22.1738 67.5156 21.9395C67.3594 21.4316 67.0078 21.0801 66.4609 20.8848C65.9141 20.6699 65.2988 20.582 64.6152 20.6211ZM87.0566 12.2715C86.8809 12.7012 86.7246 13.0918 86.5879 13.4434C86.4707 13.7949 86.3633 14.1074 86.2656 14.3809C86.168 14.6934 86.0801 14.9668 86.002 15.2012C85.9238 15.4746 85.8359 15.7871 85.7383 16.1387C85.6406 16.4512 85.5137 16.8418 85.3574 17.3105C85.2207 17.7598 85.0547 18.2969 84.8594 18.9219C84.7031 17.9844 84.4199 17.2422 84.0098 16.6953C83.5996 16.1289 83.1797 15.6895 82.75 15.377C82.2422 15.0254 81.6953 14.7715 81.1094 14.6152C80.0547 14.4395 79.293 14.459 78.8242 14.6738C78.3555 14.8887 78.043 15.1621 77.8867 15.4941C77.8086 15.6309 77.7207 15.8066 77.623 16.0215C77.5449 16.2168 77.4766 16.4219 77.418 16.6367C77.3789 16.8516 77.3691 17.0664 77.3887 17.2812C77.4082 17.4961 77.4961 17.6719 77.6523 17.8086C77.75 17.9062 78.0039 18.043 78.4141 18.2188C78.8242 18.375 79.3125 18.5605 79.8789 18.7754C80.4648 18.9707 81.0801 19.1855 81.7246 19.4199C82.3887 19.6543 83.0137 19.8887 83.5996 20.123C84.1855 20.3574 84.6934 20.5918 85.123 20.8262C85.5527 21.0605 85.8359 21.2754 85.9727 21.4707C86.0898 21.666 86.2168 21.9297 86.3535 22.2617C86.5098 22.5742 86.6172 22.9258 86.6758 23.3164C86.7539 23.6875 86.7734 24.0781 86.7344 24.4883C86.7148 24.8789 86.6074 25.2695 86.4121 25.6602C86.2168 26.0508 85.9043 26.4121 85.4746 26.7441C85.0645 27.0762 84.5078 27.3496 83.8047 27.5645C82.9844 27.8184 82.1934 27.8867 81.4316 27.7695C80.6699 27.6523 79.9668 27.4766 79.3223 27.2422C78.6973 27.0078 78.1504 26.7832 77.6816 26.5684C77.2129 26.334 76.8809 26.2363 76.6855 26.2754C76.4707 26.3145 76.2266 26.4219 75.9531 26.5977C75.6797 26.7734 75.416 26.959 75.1621 27.1543C74.9277 27.3301 74.7227 27.4961 74.5469 27.6523C74.3711 27.7891 74.2832 27.8379 74.2832 27.7988C74.2832 27.7598 74.3125 27.6426 74.3711 27.4473C74.4492 27.252 74.5273 27.0176 74.6055 26.7441C74.7031 26.4512 74.791 26.1387 74.8691 25.8066C74.9668 25.4551 75.0352 25.123 75.0742 24.8105C75.1133 24.5566 75.1621 24.2441 75.2207 23.873C75.2598 23.541 75.3086 23.1406 75.3672 22.6719C75.4453 22.1836 75.5332 21.5977 75.6309 20.9141C75.7285 21.4219 75.8652 21.8613 76.041 22.2324C76.2363 22.6035 76.4219 22.9258 76.5977 23.1992C76.8125 23.5117 77.0176 23.7754 77.2129 23.9902C77.5059 24.2637 77.8477 24.5176 78.2383 24.752C78.6484 24.9863 79.0586 25.1914 79.4688 25.3672C79.8789 25.5234 80.2695 25.6211 80.6406 25.6602C81.0117 25.6992 81.3242 25.6602 81.5781 25.543C81.832 25.4258 82.0469 25.2109 82.2227 24.8984C82.418 24.5859 82.5547 24.2441 82.6328 23.873C82.7109 23.502 82.7402 23.1504 82.7207 22.8184C82.7012 22.4668 82.6133 22.1836 82.457 21.9688C82.3398 21.832 82.0664 21.6562 81.6367 21.4414C81.2266 21.2266 80.7285 20.9922 80.1426 20.7383C79.5762 20.4844 78.9707 20.2207 78.3262 19.9473C77.7012 19.6738 77.1055 19.4004 76.5391 19.127C75.9922 18.834 75.5332 18.5605 75.1621 18.3066C74.8105 18.0332 74.6152 17.7891 74.5762 17.5742C74.5371 17.2617 74.5078 16.9199 74.4883 16.5488C74.4688 16.1582 74.4883 15.7773 74.5469 15.4062C74.625 15.0156 74.7617 14.6445 74.957 14.293C75.1719 13.9414 75.4844 13.6484 75.8945 13.4141C76.168 13.2578 76.5293 13.1406 76.9785 13.0625C77.4277 12.9844 77.9258 12.9453 78.4727 12.9453C79.0195 12.9258 79.5859 12.9453 80.1719 13.0039C80.7578 13.043 81.3145 13.1016 81.8418 13.1797C82.3887 13.2383 82.877 13.3164 83.3066 13.4141C83.7559 13.5117 84.0977 13.5996 84.332 13.6777C84.6055 13.7754 84.8984 13.7852 85.2109 13.707C85.4844 13.6484 85.7773 13.5215 86.0898 13.3262C86.4023 13.1309 86.7246 12.7793 87.0566 12.2715ZM87.9648 6.79297C88.4141 6.87109 88.8242 6.92969 89.1953 6.96875C89.5664 6.98828 89.8789 7.00781 90.1328 7.02734C90.4258 7.04687 90.6797 7.05664 90.8945 7.05664C91.1875 7.03711 91.5293 7.00781 91.9199 6.96875C92.252 6.92969 92.6523 6.88086 93.1211 6.82227C93.6094 6.76367 94.166 6.68555 94.791 6.58789C94.498 6.74414 94.2539 6.90039 94.0586 7.05664C93.8633 7.19336 93.707 7.33984 93.5898 7.49609C93.4531 7.67188 93.3457 7.83789 93.2676 7.99414C93.1699 8.24805 93.0625 8.77539 92.9453 9.57617C92.8281 10.2598 92.6816 11.2754 92.5059 12.623C92.3496 13.9707 92.1445 15.7969 91.8906 18.1016C92.5938 17.3984 93.2578 16.8711 93.8828 16.5195C94.5273 16.1484 95.0938 15.8848 95.582 15.7285C96.1484 15.5527 96.6758 15.4648 97.1641 15.4648C97.7695 15.5234 98.3848 15.7188 99.0098 16.0508C99.6543 16.3633 100.25 16.7344 100.797 17.1641C101.363 17.5938 101.852 18.0527 102.262 18.541C102.691 19.0293 102.994 19.459 103.17 19.8301C103.287 20.084 103.346 20.416 103.346 20.8262C103.346 21.2168 103.307 21.6465 103.229 22.1152C103.15 22.584 103.043 23.0625 102.906 23.5508C102.77 24.0391 102.633 24.498 102.496 24.9277C102.379 25.3574 102.271 25.7383 102.174 26.0703C102.076 26.3828 102.018 26.6074 101.998 26.7441C101.959 27.0371 101.979 27.3203 102.057 27.5938C102.115 27.8281 102.232 28.082 102.408 28.3555C102.584 28.6094 102.848 28.8242 103.199 29C102.926 28.9609 102.633 28.9316 102.32 28.9121C102.027 28.873 101.744 28.8438 101.471 28.8242C101.158 28.8047 100.846 28.7949 100.533 28.7949H99.4785C99.1465 28.7949 98.7656 28.8047 98.3359 28.8242C97.9062 28.8242 97.4375 28.834 96.9297 28.8535C97.2031 28.7559 97.4375 28.6289 97.6328 28.4727C97.8281 28.2969 97.9941 28.1309 98.1309 27.9746C98.2871 27.7988 98.4238 27.6133 98.541 27.418C98.6191 27.2617 98.7168 26.9688 98.834 26.5391C98.9512 26.0898 99.0586 25.582 99.1562 25.0156C99.2539 24.4297 99.3223 23.8145 99.3613 23.1699C99.4199 22.5254 99.4297 21.9102 99.3906 21.3242C99.3711 20.7188 99.2832 20.1816 99.127 19.7129C98.9902 19.2441 98.7754 18.9023 98.4824 18.6875C97.6035 18.0234 96.8027 17.7012 96.0801 17.7207C95.377 17.7207 94.7031 18.0039 94.0586 18.5703C93.8242 18.7852 93.5996 19 93.3848 19.2148C93.1895 19.4102 92.9746 19.6445 92.7402 19.918C92.5059 20.1719 92.291 20.4355 92.0957 20.709C92.0957 21.002 92.1055 21.3242 92.125 21.6758C92.1445 22.0273 92.1641 22.3691 92.1836 22.7012C92.2031 23.0723 92.2324 23.4434 92.2715 23.8145C92.3105 24.3809 92.3691 24.9375 92.4473 25.4844C92.5059 25.9531 92.584 26.4707 92.6816 27.0371C92.7793 27.584 92.9062 28.082 93.0625 28.5312C92.8086 28.4922 92.5449 28.4824 92.2715 28.502C91.998 28.502 91.7344 28.502 91.4805 28.502C91.1875 28.5215 90.9043 28.5312 90.6309 28.5312C90.377 28.5508 90.1133 28.5801 89.8398 28.6191C89.6055 28.6582 89.3516 28.6973 89.0781 28.7363C88.8047 28.7559 88.541 28.7949 88.2871 28.8535C88.5215 28.4043 88.7168 27.9648 88.873 27.5352C89.0293 27.0859 89.1562 26.6953 89.2539 26.3633C89.3711 25.9727 89.4688 25.5918 89.5469 25.2207C89.6055 24.9277 89.6445 24.3711 89.6641 23.5508C89.7031 22.7109 89.7324 21.7539 89.752 20.6797C89.7715 19.5859 89.7812 18.4336 89.7812 17.2227C89.7812 16.0117 89.7715 14.8594 89.752 13.7656C89.7324 12.6719 89.6934 11.7148 89.6348 10.8945C89.5957 10.0742 89.5469 9.50781 89.4883 9.19531C89.4102 8.88281 89.3027 8.57031 89.166 8.25781C89.0488 7.98437 88.8926 7.7207 88.6973 7.4668C88.502 7.19336 88.2578 6.96875 87.9648 6.79297ZM103.316 14.0293C103.707 14.0879 104.059 14.1367 104.371 14.1758C104.664 14.1953 104.928 14.2148 105.162 14.2344C105.416 14.2539 105.66 14.2637 105.895 14.2637C106.109 14.2637 106.383 14.2539 106.715 14.2344C106.988 14.2148 107.34 14.1953 107.77 14.1758C108.219 14.1367 108.746 14.0879 109.352 14.0293C109.312 14.1074 109.234 14.3516 109.117 14.7617C109 15.1523 108.883 15.6406 108.766 16.2266C108.648 16.793 108.541 17.4277 108.443 18.1309C108.365 18.8145 108.326 19.498 108.326 20.1816C108.346 20.8457 108.434 21.4805 108.59 22.0859C108.746 22.6719 109 23.1504 109.352 23.5215C110.094 24.2832 110.748 24.7422 111.314 24.8984C111.9 25.0547 112.408 25.0352 112.838 24.8398C113.268 24.6445 113.619 24.3516 113.893 23.9609C114.166 23.5703 114.361 23.209 114.479 22.877C114.771 21.9785 114.947 21.0312 115.006 20.0352C115.045 19.1758 114.977 18.2188 114.801 17.1641C114.625 16.1094 114.205 15.0352 113.541 13.9414C114.049 13.9805 114.488 14.0098 114.859 14.0293C115.23 14.0488 115.553 14.0684 115.826 14.0879C116.139 14.1074 116.412 14.127 116.646 14.1465C116.861 14.166 117.115 14.166 117.408 14.1465C117.662 14.1465 117.965 14.1367 118.316 14.1172C118.688 14.0781 119.098 14.0391 119.547 14C119.625 15.9141 119.693 17.623 119.752 19.127C119.811 20.6113 119.85 21.9297 119.869 23.082C119.908 24.2148 119.928 25.2012 119.928 26.041C119.928 26.8613 119.928 27.5547 119.928 28.1211C119.908 29.4688 119.85 30.3574 119.752 30.7871C119.596 31.3926 119.312 31.998 118.902 32.6035C118.512 33.209 118.014 33.7461 117.408 34.2148C116.803 34.7031 116.1 35.0742 115.299 35.3281C114.518 35.6016 113.658 35.6992 112.721 35.6211C111.803 35.543 111.07 35.416 110.523 35.2402C109.996 35.084 109.576 34.8984 109.264 34.6836C108.971 34.4688 108.756 34.2441 108.619 34.0098C108.502 33.7754 108.414 33.5312 108.355 33.2773C108.297 33.043 108.238 32.8184 108.18 32.6035C108.121 32.3887 108.004 32.2031 107.828 32.0469C107.613 31.8711 107.389 31.6953 107.154 31.5195C106.939 31.3633 106.705 31.207 106.451 31.0508C106.217 30.8945 105.982 30.7676 105.748 30.6699L111.988 30.3184C111.812 30.5527 111.686 30.7676 111.607 30.9629C111.529 31.1582 111.48 31.3242 111.461 31.4609C111.441 31.6367 111.451 31.7832 111.49 31.9004C111.568 32.1348 111.705 32.3887 111.9 32.6621C112.115 32.9551 112.389 33.1797 112.721 33.3359C113.053 33.5117 113.443 33.5703 113.893 33.5117C114.361 33.4531 114.889 33.209 115.475 32.7793C115.963 32.4082 116.373 31.8125 116.705 30.9922C116.979 30.2891 117.193 29.3027 117.35 28.0332C117.506 26.7637 117.477 25.0938 117.262 23.0234C116.91 24.2344 116.432 25.1621 115.826 25.8066C115.221 26.4512 114.615 26.9199 114.01 27.2129C113.307 27.5645 112.574 27.75 111.812 27.7695C110.797 27.7305 109.928 27.6035 109.205 27.3887C108.482 27.1543 107.887 26.8418 107.418 26.4512C106.949 26.0605 106.578 25.6016 106.305 25.0742C106.051 24.5273 105.865 23.9219 105.748 23.2578C105.631 22.5938 105.572 21.9297 105.572 21.2656C105.572 20.582 105.572 19.9473 105.572 19.3613C105.592 18.7754 105.602 18.248 105.602 17.7793C105.602 17.291 105.553 16.9004 105.455 16.6074C105.338 16.3145 105.182 16.0215 104.986 15.7285C104.83 15.4746 104.615 15.2012 104.342 14.9082C104.049 14.5957 103.707 14.3027 103.316 14.0293Z" fill="white"/>
<defs>
<linearGradient id="paint0_linear_7_2" x1="15" y1="5.13889" x2="15" y2="35.1389" gradientUnits="userSpaceOnUse">
<stop stop-color="#877EFF"/>
<stop offset="0.461458" stop-color="#685DFF"/>
<stop offset="1" stop-color="#3121FF"/>
</linearGradient>
</defs>
</svg>
