<svg width="169" height="37" viewBox="0 0 169 37" fill="none" xmlns="http://www.w3.org/2000/svg">
<path fill-rule="evenodd" clip-rule="evenodd" d="M27.8333 20.1389C27.8333 27.2266 22.0877 32.9722 15 32.9722C7.91234 32.9722 2.16666 27.2266 2.16666 20.1389C2.16666 13.0512 7.91234 7.30555 15 7.30555C22.0877 7.30555 27.8333 13.0512 27.8333 20.1389ZM30 20.1389C30 28.4232 23.2843 35.1389 15 35.1389C6.71573 35.1389 0 28.4232 0 20.1389C0 11.8546 6.71573 5.13889 15 5.13889C23.2843 5.13889 30 11.8546 30 20.1389ZM23.2759 13.4148C23.2759 14.2718 22.5812 14.9665 21.7242 14.9665C20.8672 14.9665 20.1725 14.2718 20.1725 13.4148C20.1725 12.5578 20.8672 11.8631 21.7242 11.8631C22.5812 11.8631 23.2759 12.5578 23.2759 13.4148ZM10.4879 21.3479C11.1556 23.8398 13.717 25.3186 16.2089 24.6509C18.7008 23.9832 20.1796 21.4218 19.5119 18.9299C18.8442 16.438 16.2828 14.9592 13.7909 15.6269C11.299 16.2946 9.82015 18.856 10.4879 21.3479ZM8.39503 21.9087C9.37244 25.5564 13.1219 27.7212 16.7696 26.7438C20.4174 25.7663 22.5821 22.0169 21.6047 18.3691C20.6273 14.7214 16.8779 12.5566 13.2301 13.5341C9.58236 14.5115 7.41762 18.2609 8.39503 21.9087Z" fill="url(#paint0_linear_1_4)"/>
<text fill="white" xml:space="preserve" style="white-space: pre" font-family="Irish Grover" font-size="30" letter-spacing="0em"><tspan x="33.6023" y="28.5322">Flashy</tspan></text>
<defs>
<linearGradient id="paint0_linear_1_4" x1="15" y1="5.13889" x2="15" y2="35.1389" gradientUnits="userSpaceOnUse">
<stop stop-color="#877EFF"/>
<stop offset="0.461458" stop-color="#685DFF"/>
<stop offset="1" stop-color="#3121FF"/>
</linearGradient>
</defs>
</svg>
